<?xml version="1.0" standalone="no"?><!DOCTYPE svg PUBLIC "-//W3C//DTD SVG 1.1//EN" "http://www.w3.org/Graphics/SVG/1.1/DTD/svg11.dtd"><svg t="1557973261998" class="icon" style="" viewBox="0 0 1024 1024" version="1.1" xmlns="http://www.w3.org/2000/svg" p-id="10909" xmlns:xlink="http://www.w3.org/1999/xlink" width="200" height="200"><defs><style type="text/css"></style></defs><path d="M946.964 581.014l-869.93 0c-34.3 0-62.138-30.903-62.138-69.014s27.838-69.098 62.138-69.098l869.93 0c34.3 0.083 62.138 30.987 62.138 69.098 0 38.112-27.838 69.014-62.138 69.014zM946.964 235.859l-869.93 0c-34.3 0-62.138-30.903-62.138-69.014s27.838-69.098 62.138-69.098l869.93 0c34.3 0 62.138 30.903 62.138 69.098s-27.838 69.014-62.138 69.014zM77.036 788.223l869.93 0c34.3 0 62.138 30.903 62.138 69.014s-27.838 69.014-62.138 69.014l-869.93 0c-34.3 0-62.138-30.903-62.138-69.014s27.838-69.014 62.138-69.014z" p-id="10910" fill="#ffffff"></path></svg>