<?xml version="1.0" standalone="no"?><!DOCTYPE svg PUBLIC "-//W3C//DTD SVG 1.1//EN" "http://www.w3.org/Graphics/SVG/1.1/DTD/svg11.dtd"><svg t="1557995528483" class="icon" style="" viewBox="0 0 1024 1024" version="1.1" xmlns="http://www.w3.org/2000/svg" p-id="11085" xmlns:xlink="http://www.w3.org/1999/xlink" width="200" height="200"><defs><style type="text/css"></style></defs><path d="M45.568 968.704V55.296C45.568 24.576 70.656 0 100.864 0c0 0 13.824 1.024 26.112 7.68 10.24 5.632 16.896 12.8 16.896 12.8 7.168 9.728 11.776 21.504 11.776 34.304v377.856L847.36 13.824c13.824-8.192 29.184-12.8 45.056-12.8 14.336 0 28.16 3.584 41.472 10.752 28.16 15.36 44.544 43.52 44.544 74.752l1.024 850.432c0 30.72-17.408 58.88-44.544 74.752-12.8 7.168-27.136 10.752-41.472 10.752-15.872 0-31.744-4.608-45.056-12.8L156.672 590.336v378.368c0 30.72-24.576 55.296-55.296 55.296s-54.784-24.064-55.808-55.296zM867.84 130.56L239.104 512l629.248 381.44-0.512-762.88z" fill="#ffffff" p-id="11086"></path></svg>